<?xml version="1.0" encoding="utf-8"?>
<!-- Generator: Adobe Illustrator 24.3.0, SVG Export Plug-In . SVG Version: 6.00 Build 0)  -->
<svg version="1.1" id="Layer_1" xmlns="http://www.w3.org/2000/svg" xmlns:xlink="http://www.w3.org/1999/xlink" x="0px" y="0px"
	 viewBox="0 0 102 102" style="enable-background:new 0 0 102 102;" xml:space="preserve">
<style type="text/css">
	.st0{fill-rule:evenodd;clip-rule:evenodd;fill:#FAC403;}
</style>
<desc>Created with Sketch.</desc>
<path class="st0" d="M51,102c28.2,0,51-22.8,51-51S79.2,0,51,0S0,22.8,0,51S22.8,102,51,102z M57.4,51l14.8,14.8
	c1.8,1.8,1.8,4.6,0,6.4s-4.6,1.8-6.4,0L51,57.4L36.2,72.2c-1.8,1.8-4.6,1.8-6.4,0s-1.8-4.6,0-6.4L44.6,51L29.8,36.2
	c-1.8-1.8-1.8-4.6,0-6.4s4.6-1.8,6.4,0L51,44.6l14.8-14.8c1.8-1.8,4.6-1.8,6.4,0s1.8,4.6,0,6.4L57.4,51z"/>
</svg>
